<svg width="26" height="24" viewBox="0 0 26 24" fill="none" xmlns="http://www.w3.org/2000/svg">
<path fill-rule="evenodd" clip-rule="evenodd" d="M23.8979 8.69912V7.73925C23.8979 7.5134 23.8084 7.29607 23.6486 7.13628C23.4888 6.97648 23.2715 6.88699 23.0456 6.88699H20.4579C20.4185 6.32662 20.3386 5.75133 20.2075 5.18245H23.0455C23.7242 5.18245 24.374 5.45198 24.8534 5.93138C25.3328 6.41078 25.6024 7.06064 25.6024 7.73926V21.3756C25.6024 22.0543 25.3328 22.7041 24.8534 23.1835C24.374 23.6629 23.7242 23.9324 23.0455 23.9324H2.591C1.91237 23.9324 1.26252 23.6629 0.783116 23.1835C0.303716 22.7041 0.0341797 22.0543 0.0341797 21.3756V7.73926C0.0341797 7.06064 0.303711 6.41078 0.783116 5.93138C1.26252 5.45198 1.91237 5.18245 2.591 5.18245H5.33954C5.21277 5.74282 5.14991 6.31489 5.14991 6.88699H2.59097C2.36512 6.88699 2.14779 6.97648 1.988 7.13628C1.82819 7.29608 1.73871 7.51341 1.73871 7.73925V8.69912L12.3113 16.5305C12.6117 16.7542 13.025 16.7542 13.3255 16.5305L23.8979 8.69912ZM1.73879 10.8202V21.1358L7.74615 16.3301L9.16305 17.3805L3.10332 22.2277H22.533L16.4732 17.3805L17.8901 16.3301L23.8964 21.1358V10.8202L14.3392 17.9005C13.4348 18.5706 12.1989 18.5706 11.2945 17.9005L1.73732 10.8202H1.73879ZM14.5973 3.97965C14.0796 3.66111 13.4702 3.47789 12.8182 3.47789C10.9368 3.47789 9.40913 5.0056 9.40913 6.88698C9.40913 8.76836 10.9368 10.2961 12.8182 10.2961C13.7099 10.2961 14.5206 9.95304 15.13 9.39266C15.5988 9.9445 16.2987 10.2961 17.0796 10.2961C18.4901 10.2961 19.6353 9.15084 19.6353 7.74032C19.6353 5.83761 19.189 3.61532 17.64 2.06623C14.9787 -0.594992 10.6576 -0.594992 7.99769 2.06623C5.33647 4.72744 5.33647 9.04859 7.99769 11.7085C9.82793 13.5387 12.4445 14.1098 14.7668 13.4216C15.2174 13.2873 15.4752 12.8132 15.341 12.3626C15.2068 11.912 14.7327 11.6541 14.281 11.7884C12.5402 12.3051 10.5768 11.8768 9.20363 10.5036C7.20825 8.50714 7.20825 5.2675 9.20363 3.27086C11.2001 1.27548 14.4397 1.27548 16.4364 3.27086C17.6498 4.48428 17.9321 6.24959 17.9321 7.74004C17.9321 8.20987 17.5507 8.59125 17.0809 8.59125C16.6111 8.59125 16.2297 8.20987 16.2297 7.74004V4.32986C16.2297 3.85897 15.8483 3.47759 15.3774 3.47759C15.0323 3.47759 14.7339 3.68427 14.5997 3.97935L14.5973 3.97965ZM12.8182 5.18244C13.7589 5.18244 14.5228 5.94629 14.5228 6.88698C14.5228 7.82767 13.7589 8.59153 12.8182 8.59153C11.8775 8.59153 11.1137 7.82767 11.1137 6.88698C11.1137 5.94629 11.8775 5.18244 12.8182 5.18244Z" fill="#D4D4D8"/>
</svg>
