<svg width="25" height="24" viewBox="0 0 25 24" fill="none" xmlns="http://www.w3.org/2000/svg">
<path fill-rule="evenodd" clip-rule="evenodd" d="M1.25782 0.621104C1.65551 0.223418 2.19489 0 2.7573 0H22.5161C23.0786 0 23.6179 0.223418 24.0156 0.621104C24.4133 1.01879 24.6367 1.55817 24.6367 2.12058V21.8794C24.6367 22.4418 24.4133 22.9812 24.0156 23.3789C23.6179 23.7766 23.0785 24 22.5161 24H2.7573C2.19489 24 1.65551 23.7766 1.25782 23.3789C0.860136 22.9812 0.636719 22.4418 0.636719 21.8794V2.12058C0.636719 1.55817 0.860136 1.01879 1.25782 0.621104ZM2.56325 1.92653C2.61472 1.87507 2.68452 1.84615 2.7573 1.84615H22.5161C22.5889 1.84615 22.6587 1.87507 22.7102 1.92653C22.7617 1.978 22.7906 2.0478 22.7906 2.12058V21.8794C22.7906 21.9522 22.7617 22.022 22.7102 22.0735C22.6587 22.1249 22.5889 22.1538 22.5161 22.1538H2.7573C2.68452 22.1538 2.61471 22.1249 2.56325 22.0735C2.51179 22.022 2.48287 21.9522 2.48287 21.8794V2.12058C2.48287 2.0478 2.51179 1.978 2.56325 1.92653ZM7.63152 4.31702C6.87371 4.31702 6.25938 4.93135 6.25938 5.68916C6.25938 6.44697 6.87371 7.0613 7.63152 7.0613C8.38934 7.0613 9.00366 6.44697 9.00366 5.68916C9.00366 4.93135 8.38934 4.31702 7.63152 4.31702ZM11.9802 8.36409C11.8485 8.01506 11.5114 7.76681 11.1163 7.76681C10.6065 7.76681 10.1932 8.18008 10.1932 8.68988V17.6592C10.1932 18.169 10.6065 18.5823 11.1163 18.5823C11.6261 18.5823 12.0393 18.169 12.0393 17.6592V11.9058C12.0407 11.226 12.3118 10.5744 12.7929 10.094C13.2742 9.61358 13.9264 9.34368 14.6064 9.34352C15.2855 9.34494 15.9364 9.61534 16.4166 10.0956C16.8968 10.5758 17.1672 11.2267 17.1687 11.9058V17.6592C17.1687 18.169 17.5819 18.5823 18.0917 18.5823C18.6015 18.5823 19.0148 18.169 19.0148 17.6592L19.0148 11.9036C19.0128 10.7356 18.5479 9.61603 17.722 8.79014C16.8961 7.96424 15.7766 7.49937 14.6086 7.49737C13.6672 7.49737 12.7368 7.80376 11.9802 8.36409ZM8.5546 8.68988C8.5546 8.18008 8.14132 7.76681 7.63152 7.76681C7.12172 7.76681 6.70844 8.18008 6.70844 8.68988V17.6592C6.70844 18.169 7.12172 18.5823 7.63152 18.5823C8.14132 18.5823 8.5546 18.169 8.5546 17.6592V8.68988ZM8.10553 5.68916C8.10553 5.95095 7.89331 6.16317 7.63152 6.16317C7.36973 6.16317 7.15751 5.95095 7.15751 5.68916C7.15751 5.42737 7.36973 5.21515 7.63152 5.21515C7.89331 5.21515 8.10553 5.42737 8.10553 5.68916Z" fill="#D4D4D8"/>
</svg>
