<svg width="25" height="24" viewBox="0 0 25 24" fill="none" xmlns="http://www.w3.org/2000/svg">
<path d="M21.1367 3.48591C19.4665 1.82244 17.3421 0.689651 15.0304 0.229797C12.7187 -0.230056 10.3228 0.0035201 8.14333 0.901198C5.9639 1.79888 4.09819 3.32064 2.78046 5.2754C1.46272 7.23017 0.75172 9.5308 0.736719 11.8884C0.736929 13.9744 1.28599 16.0236 2.32872 17.8302L0.636719 24L6.96872 22.3435C8.78536 23.3314 10.8271 23.8313 12.8945 23.7941C14.9619 23.757 16.9844 23.1842 18.7644 22.1317C20.5444 21.0792 22.0211 19.5829 23.0504 17.7889C24.0796 15.995 24.6262 13.9648 24.6367 11.8964C24.6401 10.3324 24.3324 8.78332 23.7315 7.3394C23.1306 5.89548 22.2486 4.58556 21.1367 3.48591ZM12.6847 21.7793C10.9036 21.7786 9.15503 21.3021 7.61972 20.3989L7.25772 20.1829L3.49472 21.1672L4.49472 17.5181L4.25372 17.146C2.97033 15.0781 2.49183 12.6104 2.9093 10.2125C3.32677 7.81465 4.61106 5.65402 6.51773 4.14187C8.4244 2.62972 10.8203 1.87161 13.2495 2.01183C15.6787 2.15206 17.9716 3.18083 19.6917 4.90233C21.0792 6.28449 22.0245 8.04805 22.4076 9.9689C22.7907 11.8898 22.5943 13.8812 21.8433 15.6901C21.0922 17.499 19.8205 19.0437 18.1898 20.128C16.559 21.2122 14.6428 21.787 12.6847 21.7793ZM18.1367 14.3851C17.8367 14.2411 16.3647 13.5209 16.0987 13.4129C15.8327 13.3048 15.6287 13.2688 15.4237 13.5569C15.2187 13.845 14.6517 14.5292 14.4827 14.7212C14.3137 14.9133 14.1327 14.9493 13.8317 14.7933C12.9511 14.4462 12.1386 13.9464 11.4317 13.3168C10.7789 12.7136 10.218 12.0181 9.76672 11.2522C9.59772 10.9521 9.74272 10.7961 9.89872 10.64C10.0317 10.508 10.1987 10.2919 10.3457 10.1239C10.468 9.97452 10.569 9.80889 10.6457 9.63174C10.6844 9.55036 10.7025 9.46068 10.6983 9.37065C10.6941 9.28062 10.6678 9.19301 10.6217 9.11558C10.5497 8.97154 9.94672 7.50711 9.70472 6.90693C9.46372 6.33076 9.21072 6.40678 9.02972 6.39077H8.45172C8.29975 6.39329 8.15001 6.42772 8.0122 6.49182C7.87439 6.55592 7.75157 6.64827 7.65172 6.76289C7.31862 7.08422 7.05505 7.47057 6.87735 7.89799C6.69966 8.3254 6.61163 8.78477 6.61872 9.24762C6.71618 10.3689 7.13959 11.4371 7.83672 12.3205C9.11668 14.2359 10.8747 15.7834 12.9367 16.8099C13.4899 17.0529 14.0577 17.2613 14.6367 17.4341C15.2462 17.6178 15.8898 17.6589 16.5177 17.5541C16.9346 17.4724 17.3297 17.3042 17.6775 17.0602C18.0252 16.8162 18.318 16.5019 18.5367 16.1377C18.7401 15.6949 18.7992 15.1994 18.7057 14.7212C18.6187 14.5892 18.4367 14.5292 18.1367 14.3851Z" fill="#D4D4D8"/>
</svg>
