<svg width="20" height="19" viewBox="0 0 20 19" fill="none" xmlns="http://www.w3.org/2000/svg">
<path d="M13.5806 6.16168C12.8193 5.39743 11.8164 4.92098 10.743 4.81358C9.66955 4.70618 8.59213 4.97448 7.69445 5.57273C6.79676 6.17098 6.13442 7.06212 5.82039 8.09417C5.50635 9.12621 5.56007 10.2352 5.97238 11.2321C6.3847 12.229 7.13007 13.0519 8.08137 13.5606C9.03267 14.0693 10.131 14.2322 11.189 14.0216C12.247 13.8109 13.1991 13.2398 13.8831 12.4055C14.567 11.5713 14.9403 10.5256 14.9394 9.44681C14.9407 8.83669 14.8213 8.23235 14.5881 7.66855C14.3549 7.10476 14.0125 6.59264 13.5806 6.16168ZM12.4297 11.5889C12.0067 12.0123 11.4677 12.3007 10.8807 12.4177C10.2938 12.5347 9.68531 12.475 9.13232 12.2461C8.57933 12.0172 8.10665 11.6294 7.77408 11.1319C7.44152 10.6343 7.264 10.0492 7.264 9.45075C7.264 8.85226 7.44152 8.26721 7.77408 7.76963C8.10665 7.27205 8.57933 6.88428 9.13232 6.65539C9.68531 6.42651 10.2938 6.36678 10.8807 6.48377C11.4677 6.60075 12.0067 6.8892 12.4297 7.31262C12.71 7.59262 12.932 7.92539 13.0829 8.29171C13.2339 8.65803 13.3107 9.05062 13.309 9.44681C13.311 10.2491 12.9948 11.0194 12.4297 11.5889ZM16.0738 3.66851C15.9756 3.5703 15.859 3.49239 15.7307 3.43924C15.6024 3.38609 15.4648 3.35873 15.3259 3.35873C15.187 3.35873 15.0495 3.38609 14.9212 3.43924C14.7929 3.49239 14.6763 3.5703 14.5781 3.66851C14.4798 3.76672 14.4019 3.88332 14.3488 4.01164C14.2956 4.13996 14.2683 4.27749 14.2683 4.41638C14.2683 4.55528 14.2956 4.69281 14.3488 4.82113C14.4019 4.94945 14.4798 5.06604 14.5781 5.16426C14.7801 5.35549 15.0477 5.46206 15.3259 5.46206C15.6041 5.46206 15.8718 5.35549 16.0738 5.16426C16.269 4.96426 16.3783 4.69586 16.3783 4.41638C16.3783 4.1369 16.269 3.8685 16.0738 3.66851ZM16.0738 3.66851C15.9756 3.5703 15.859 3.49239 15.7307 3.43924C15.6024 3.38609 15.4648 3.35873 15.3259 3.35873C15.187 3.35873 15.0495 3.38609 14.9212 3.43924C14.7929 3.49239 14.6763 3.5703 14.5781 3.66851C14.4798 3.76672 14.4019 3.88332 14.3488 4.01164C14.2956 4.13996 14.2683 4.27749 14.2683 4.41638C14.2683 4.55528 14.2956 4.69281 14.3488 4.82113C14.4019 4.94945 14.4798 5.06604 14.5781 5.16426C14.7801 5.35549 15.0477 5.46206 15.3259 5.46206C15.6041 5.46206 15.8718 5.35549 16.0738 5.16426C16.269 4.96426 16.3783 4.69586 16.3783 4.41638C16.3783 4.1369 16.269 3.8685 16.0738 3.66851ZM13.5806 6.16168C12.8193 5.39743 11.8164 4.92098 10.743 4.81358C9.66955 4.70618 8.59213 4.97448 7.69445 5.57273C6.79676 6.17098 6.13442 7.06212 5.82039 8.09417C5.50635 9.12621 5.56007 10.2352 5.97238 11.2321C6.3847 12.229 7.13007 13.0519 8.08137 13.5606C9.03267 14.0693 10.131 14.2322 11.189 14.0216C12.247 13.8109 13.1991 13.2398 13.8831 12.4055C14.567 11.5713 14.9403 10.5256 14.9394 9.44681C14.9407 8.83669 14.8213 8.23235 14.5881 7.66855C14.3549 7.10476 14.0125 6.59264 13.5806 6.16168ZM12.4297 11.5889C12.0067 12.0123 11.4677 12.3007 10.8807 12.4177C10.2938 12.5347 9.68531 12.475 9.13232 12.2461C8.57933 12.0172 8.10665 11.6294 7.77408 11.1319C7.44152 10.6343 7.264 10.0492 7.264 9.45075C7.264 8.85226 7.44152 8.26721 7.77408 7.76963C8.10665 7.27205 8.57933 6.88428 9.13232 6.65539C9.68531 6.42651 10.2938 6.36678 10.8807 6.48377C11.4677 6.60075 12.0067 6.8892 12.4297 7.31262C12.71 7.59262 12.932 7.92539 13.0829 8.29171C13.2339 8.65803 13.3107 9.05062 13.309 9.44681C13.311 10.2491 12.9948 11.0194 12.4297 11.5889ZM13.5806 6.16168C12.8193 5.39743 11.8164 4.92098 10.743 4.81358C9.66955 4.70618 8.59213 4.97448 7.69445 5.57273C6.79676 6.17098 6.13442 7.06212 5.82039 8.09417C5.50635 9.12621 5.56007 10.2352 5.97238 11.2321C6.3847 12.229 7.13007 13.0519 8.08137 13.5606C9.03267 14.0693 10.131 14.2322 11.189 14.0216C12.247 13.8109 13.1991 13.2398 13.8831 12.4055C14.567 11.5713 14.9403 10.5256 14.9394 9.44681C14.9407 8.83669 14.8213 8.23235 14.5881 7.66855C14.3549 7.10476 14.0125 6.59264 13.5806 6.16168ZM12.4297 11.5889C12.0067 12.0123 11.4677 12.3007 10.8807 12.4177C10.2938 12.5347 9.68531 12.475 9.13232 12.2461C8.57933 12.0172 8.10665 11.6294 7.77408 11.1319C7.44152 10.6343 7.264 10.0492 7.264 9.45075C7.264 8.85226 7.44152 8.26721 7.77408 7.76963C8.10665 7.27205 8.57933 6.88428 9.13232 6.65539C9.68531 6.42651 10.2938 6.36678 10.8807 6.48377C11.4677 6.60075 12.0067 6.8892 12.4297 7.31262C12.71 7.59262 12.932 7.92539 13.0829 8.29171C13.2339 8.65803 13.3107 9.05062 13.309 9.44681C13.311 10.2491 12.9948 11.0194 12.4297 11.5889ZM16.0738 3.66851C15.9756 3.5703 15.859 3.49239 15.7307 3.43924C15.6024 3.38609 15.4648 3.35873 15.3259 3.35873C15.187 3.35873 15.0495 3.38609 14.9212 3.43924C14.7929 3.49239 14.6763 3.5703 14.5781 3.66851C14.4798 3.76672 14.4019 3.88332 14.3488 4.01164C14.2956 4.13996 14.2683 4.27749 14.2683 4.41638C14.2683 4.55528 14.2956 4.69281 14.3488 4.82113C14.4019 4.94945 14.4798 5.06604 14.5781 5.16426C14.7801 5.35549 15.0477 5.46206 15.3259 5.46206C15.6041 5.46206 15.8718 5.35549 16.0738 5.16426C16.269 4.96426 16.3783 4.69586 16.3783 4.41638C16.3783 4.1369 16.269 3.8685 16.0738 3.66851ZM16.0738 3.66851C15.9756 3.5703 15.859 3.49239 15.7307 3.43924C15.6024 3.38609 15.4648 3.35873 15.3259 3.35873C15.187 3.35873 15.0495 3.38609 14.9212 3.43924C14.7929 3.49239 14.6763 3.5703 14.5781 3.66851C14.4798 3.76672 14.4019 3.88332 14.3488 4.01164C14.2956 4.13996 14.2683 4.27749 14.2683 4.41638C14.2683 4.55528 14.2956 4.69281 14.3488 4.82113C14.4019 4.94945 14.4798 5.06604 14.5781 5.16426C14.7801 5.35549 15.0477 5.46206 15.3259 5.46206C15.6041 5.46206 15.8718 5.35549 16.0738 5.16426C16.269 4.96426 16.3783 4.69586 16.3783 4.41638C16.3783 4.1369 16.269 3.8685 16.0738 3.66851ZM13.5806 6.16168C12.8193 5.39743 11.8164 4.92098 10.743 4.81358C9.66955 4.70618 8.59213 4.97448 7.69445 5.57273C6.79676 6.17098 6.13442 7.06212 5.82039 8.09417C5.50635 9.12621 5.56007 10.2352 5.97238 11.2321C6.3847 12.229 7.13007 13.0519 8.08137 13.5606C9.03267 14.0693 10.131 14.2322 11.189 14.0216C12.247 13.8109 13.1991 13.2398 13.8831 12.4055C14.567 11.5713 14.9403 10.5256 14.9394 9.44681C14.9407 8.83669 14.8213 8.23235 14.5881 7.66855C14.3549 7.10476 14.0125 6.59264 13.5806 6.16168ZM12.4297 11.5889C12.0067 12.0123 11.4677 12.3007 10.8807 12.4177C10.2938 12.5347 9.68531 12.475 9.13232 12.2461C8.57933 12.0172 8.10665 11.6294 7.77408 11.1319C7.44152 10.6343 7.264 10.0492 7.264 9.45075C7.264 8.85226 7.44152 8.26721 7.77408 7.76963C8.10665 7.27205 8.57933 6.88428 9.13232 6.65539C9.68531 6.42651 10.2938 6.36678 10.8807 6.48377C11.4677 6.60075 12.0067 6.8892 12.4297 7.31262C12.71 7.59262 12.932 7.92539 13.0829 8.29171C13.2339 8.65803 13.3107 9.05062 13.309 9.44681C13.311 10.2491 12.9948 11.0194 12.4297 11.5889ZM13.5806 6.16168C12.8193 5.39743 11.8164 4.92098 10.743 4.81358C9.66955 4.70618 8.59213 4.97448 7.69445 5.57273C6.79676 6.17098 6.13442 7.06212 5.82039 8.09417C5.50635 9.12621 5.56007 10.2352 5.97238 11.2321C6.3847 12.229 7.13007 13.0519 8.08137 13.5606C9.03267 14.0693 10.131 14.2322 11.189 14.0216C12.247 13.8109 13.1991 13.2398 13.8831 12.4055C14.567 11.5713 14.9403 10.5256 14.9394 9.44681C14.9407 8.83669 14.8213 8.23235 14.5881 7.66855C14.3549 7.10476 14.0125 6.59264 13.5806 6.16168ZM12.4297 11.5889C12.0067 12.0123 11.4677 12.3007 10.8807 12.4177C10.2938 12.5347 9.68531 12.475 9.13232 12.2461C8.57933 12.0172 8.10665 11.6294 7.77408 11.1319C7.44152 10.6343 7.264 10.0492 7.264 9.45075C7.264 8.85226 7.44152 8.26721 7.77408 7.76963C8.10665 7.27205 8.57933 6.88428 9.13232 6.65539C9.68531 6.42651 10.2938 6.36678 10.8807 6.48377C11.4677 6.60075 12.0067 6.8892 12.4297 7.31262C12.71 7.59262 12.932 7.92539 13.0829 8.29171C13.2339 8.65803 13.3107 9.05062 13.309 9.44681C13.311 10.2491 12.9948 11.0194 12.4297 11.5889ZM16.0738 3.66851C15.9756 3.5703 15.859 3.49239 15.7307 3.43924C15.6024 3.38609 15.4648 3.35873 15.3259 3.35873C15.187 3.35873 15.0495 3.38609 14.9212 3.43924C14.7929 3.49239 14.6763 3.5703 14.5781 3.66851C14.4798 3.76672 14.4019 3.88332 14.3488 4.01164C14.2956 4.13996 14.2683 4.27749 14.2683 4.41638C14.2683 4.55528 14.2956 4.69281 14.3488 4.82113C14.4019 4.94945 14.4798 5.06604 14.5781 5.16426C14.7801 5.35549 15.0477 5.46206 15.3259 5.46206C15.6041 5.46206 15.8718 5.35549 16.0738 5.16426C16.269 4.96426 16.3783 4.69586 16.3783 4.41638C16.3783 4.1369 16.269 3.8685 16.0738 3.66851ZM16.0738 3.66851C15.9756 3.5703 15.859 3.49239 15.7307 3.43924C15.6024 3.38609 15.4648 3.35873 15.3259 3.35873C15.187 3.35873 15.0495 3.38609 14.9212 3.43924C14.7929 3.49239 14.6763 3.5703 14.5781 3.66851C14.4798 3.76672 14.4019 3.88332 14.3488 4.01164C14.2956 4.13996 14.2683 4.27749 14.2683 4.41638C14.2683 4.55528 14.2956 4.69281 14.3488 4.82113C14.4019 4.94945 14.4798 5.06604 14.5781 5.16426C14.7801 5.35549 15.0477 5.46206 15.3259 5.46206C15.6041 5.46206 15.8718 5.35549 16.0738 5.16426C16.269 4.96426 16.3783 4.69586 16.3783 4.41638C16.3783 4.1369 16.269 3.8685 16.0738 3.66851ZM10.2876 4.79504C9.21144 4.79486 8.16847 5.16777 7.33636 5.85025C6.50426 6.53273 5.93448 7.48257 5.72408 8.53799C5.51367 9.59341 5.67566 10.6891 6.18245 11.6385C6.68923 12.5879 7.50947 13.3323 8.50346 13.7448C9.49744 14.1573 10.6037 14.2125 11.6338 13.9009C12.6639 13.5893 13.5541 12.9303 14.1529 12.036C14.7516 11.1418 15.0218 10.0676 14.9175 8.99651C14.8131 7.92539 14.3407 6.92357 13.5806 6.16168C13.1495 5.72727 12.6364 5.38277 12.0712 5.14817C11.5059 4.91358 10.8997 4.79355 10.2876 4.79504ZM12.4297 11.5889C12.0067 12.0123 11.4677 12.3007 10.8807 12.4177C10.2938 12.5347 9.68531 12.475 9.13232 12.2461C8.57933 12.0172 8.10665 11.6294 7.77408 11.1319C7.44152 10.6343 7.264 10.0492 7.264 9.45075C7.264 8.85226 7.44152 8.26721 7.77408 7.76963C8.10665 7.27205 8.57933 6.88428 9.13232 6.65539C9.68531 6.42651 10.2938 6.36678 10.8807 6.48377C11.4677 6.60075 12.0067 6.8892 12.4297 7.31262C12.71 7.59262 12.932 7.92539 13.0829 8.29171C13.2339 8.65803 13.3107 9.05062 13.309 9.44681C13.311 10.2491 12.9948 11.0194 12.4297 11.5889ZM14.3159 0H6.25935C4.82335 0.00353363 3.44718 0.575548 2.43177 1.59095C1.41637 2.60636 0.844354 3.98253 0.84082 5.41853L0.84082 13.4751C0.844354 14.9111 1.41637 16.2873 2.43177 17.3027C3.44718 18.3181 4.82335 18.8901 6.25935 18.8936H14.3159C15.0281 18.8957 15.7336 18.757 16.3919 18.4854C17.0503 18.2138 17.6484 17.8148 18.152 17.3112C18.6556 16.8076 19.0546 16.2095 19.3262 15.5511C19.5978 14.8928 19.7365 14.1872 19.7344 13.4751V5.41853C19.7332 3.98183 19.1619 2.60433 18.146 1.58843C17.1301 0.572532 15.7526 0.00125076 14.3159 0ZM18.1041 13.6664C18.1028 14.6184 17.7266 15.5316 17.0571 16.2084C16.723 16.5442 16.3256 16.8104 15.8879 16.9915C15.4502 17.1726 14.9809 17.265 14.5072 17.2633H6.06805C5.11455 17.2618 4.20052 16.8824 3.52629 16.2081C2.85206 15.5339 2.47264 14.6199 2.47118 13.6664V5.22723C2.47243 4.27367 2.85179 3.35952 3.52606 2.68524C4.20034 2.01097 5.11449 1.63161 6.06805 1.63036H14.5072C15.4612 1.63036 16.376 2.00932 17.0506 2.68386C17.7251 3.35841 18.1041 4.27328 18.1041 5.22723V13.6664ZM15.3259 3.35677C15.1168 3.35706 14.9125 3.4194 14.7388 3.5359C14.5652 3.6524 14.43 3.81782 14.3504 4.0112C14.2708 4.20458 14.2504 4.41723 14.2918 4.62221C14.3332 4.8272 14.4344 5.01529 14.5828 5.16268C14.7848 5.35392 15.0525 5.46049 15.3307 5.46049C15.6088 5.46049 15.8765 5.35392 16.0785 5.16268C16.2263 5.01428 16.3267 4.8254 16.3671 4.61992C16.4075 4.41444 16.3861 4.20159 16.3056 4.00829C16.225 3.81499 16.0889 3.64992 15.9146 3.53395C15.7402 3.41797 15.5353 3.35632 15.3259 3.35677ZM10.2876 4.79504C9.21144 4.79486 8.16847 5.16777 7.33636 5.85025C6.50426 6.53273 5.93448 7.48257 5.72408 8.53799C5.51367 9.59341 5.67566 10.6891 6.18245 11.6385C6.68923 12.5879 7.50947 13.3323 8.50346 13.7448C9.49744 14.1573 10.6037 14.2125 11.6338 13.9009C12.6639 13.5893 13.5541 12.9303 14.1529 12.036C14.7516 11.1418 15.0218 10.0676 14.9175 8.99651C14.8131 7.92539 14.3407 6.92357 13.5806 6.16168C13.1495 5.72727 12.6364 5.38277 12.0712 5.14817C11.5059 4.91358 10.8997 4.79355 10.2876 4.79504ZM12.4297 11.5889C12.0067 12.0123 11.4677 12.3007 10.8807 12.4177C10.2938 12.5347 9.68531 12.475 9.13232 12.2461C8.57933 12.0172 8.10665 11.6294 7.77408 11.1319C7.44152 10.6343 7.264 10.0492 7.264 9.45075C7.264 8.85226 7.44152 8.26721 7.77408 7.76963C8.10665 7.27205 8.57933 6.88428 9.13232 6.65539C9.68531 6.42651 10.2938 6.36678 10.8807 6.48377C11.4677 6.60075 12.0067 6.8892 12.4297 7.31262C12.71 7.59262 12.932 7.92539 13.0829 8.29171C13.2339 8.65803 13.3107 9.05062 13.309 9.44681C13.311 10.2491 12.9948 11.0194 12.4297 11.5889ZM13.5806 6.16168C12.8193 5.39743 11.8164 4.92098 10.743 4.81358C9.66955 4.70618 8.59213 4.97448 7.69445 5.57273C6.79676 6.17098 6.13442 7.06212 5.82039 8.09417C5.50635 9.12621 5.56007 10.2352 5.97238 11.2321C6.3847 12.229 7.13007 13.0519 8.08137 13.5606C9.03267 14.0693 10.131 14.2322 11.189 14.0216C12.247 13.8109 13.1991 13.2398 13.8831 12.4055C14.567 11.5713 14.9403 10.5256 14.9394 9.44681C14.9407 8.83669 14.8213 8.23235 14.5881 7.66855C14.3549 7.10476 14.0125 6.59264 13.5806 6.16168ZM12.4297 11.5889C12.0067 12.0123 11.4677 12.3007 10.8807 12.4177C10.2938 12.5347 9.68531 12.475 9.13232 12.2461C8.57933 12.0172 8.10665 11.6294 7.77408 11.1319C7.44152 10.6343 7.264 10.0492 7.264 9.45075C7.264 8.85226 7.44152 8.26721 7.77408 7.76963C8.10665 7.27205 8.57933 6.88428 9.13232 6.65539C9.68531 6.42651 10.2938 6.36678 10.8807 6.48377C11.4677 6.60075 12.0067 6.8892 12.4297 7.31262C12.71 7.59262 12.932 7.92539 13.0829 8.29171C13.2339 8.65803 13.3107 9.05062 13.309 9.44681C13.311 10.2491 12.9948 11.0194 12.4297 11.5889ZM16.0738 3.66851C15.9756 3.5703 15.859 3.49239 15.7307 3.43924C15.6024 3.38609 15.4648 3.35873 15.3259 3.35873C15.187 3.35873 15.0495 3.38609 14.9212 3.43924C14.7929 3.49239 14.6763 3.5703 14.5781 3.66851C14.4798 3.76672 14.4019 3.88332 14.3488 4.01164C14.2956 4.13996 14.2683 4.27749 14.2683 4.41638C14.2683 4.55528 14.2956 4.69281 14.3488 4.82113C14.4019 4.94945 14.4798 5.06604 14.5781 5.16426C14.7801 5.35549 15.0477 5.46206 15.3259 5.46206C15.6041 5.46206 15.8718 5.35549 16.0738 5.16426C16.269 4.96426 16.3783 4.69586 16.3783 4.41638C16.3783 4.1369 16.269 3.8685 16.0738 3.66851ZM16.0738 3.66851C15.9756 3.5703 15.859 3.49239 15.7307 3.43924C15.6024 3.38609 15.4648 3.35873 15.3259 3.35873C15.187 3.35873 15.0495 3.38609 14.9212 3.43924C14.7929 3.49239 14.6763 3.5703 14.5781 3.66851C14.4798 3.76672 14.4019 3.88332 14.3488 4.01164C14.2956 4.13996 14.2683 4.27749 14.2683 4.41638C14.2683 4.55528 14.2956 4.69281 14.3488 4.82113C14.4019 4.94945 14.4798 5.06604 14.5781 5.16426C14.7801 5.35549 15.0477 5.46206 15.3259 5.46206C15.6041 5.46206 15.8718 5.35549 16.0738 5.16426C16.269 4.96426 16.3783 4.69586 16.3783 4.41638C16.3783 4.1369 16.269 3.8685 16.0738 3.66851ZM13.5806 6.16168C12.8193 5.39743 11.8164 4.92098 10.743 4.81358C9.66955 4.70618 8.59213 4.97448 7.69445 5.57273C6.79676 6.17098 6.13442 7.06212 5.82039 8.09417C5.50635 9.12621 5.56007 10.2352 5.97238 11.2321C6.3847 12.229 7.13007 13.0519 8.08137 13.5606C9.03267 14.0693 10.131 14.2322 11.189 14.0216C12.247 13.8109 13.1991 13.2398 13.8831 12.4055C14.567 11.5713 14.9403 10.5256 14.9394 9.44681C14.9407 8.83669 14.8213 8.23235 14.5881 7.66855C14.3549 7.10476 14.0125 6.59264 13.5806 6.16168ZM12.4297 11.5889C12.0067 12.0123 11.4677 12.3007 10.8807 12.4177C10.2938 12.5347 9.68531 12.475 9.13232 12.2461C8.57933 12.0172 8.10665 11.6294 7.77408 11.1319C7.44152 10.6343 7.264 10.0492 7.264 9.45075C7.264 8.85226 7.44152 8.26721 7.77408 7.76963C8.10665 7.27205 8.57933 6.88428 9.13232 6.65539C9.68531 6.42651 10.2938 6.36678 10.8807 6.48377C11.4677 6.60075 12.0067 6.8892 12.4297 7.31262C12.71 7.59262 12.932 7.92539 13.0829 8.29171C13.2339 8.65803 13.3107 9.05062 13.309 9.44681C13.311 10.2491 12.9948 11.0194 12.4297 11.5889ZM13.5806 6.16168C12.8193 5.39743 11.8164 4.92098 10.743 4.81358C9.66955 4.70618 8.59213 4.97448 7.69445 5.57273C6.79676 6.17098 6.13442 7.06212 5.82039 8.09417C5.50635 9.12621 5.56007 10.2352 5.97238 11.2321C6.3847 12.229 7.13007 13.0519 8.08137 13.5606C9.03267 14.0693 10.131 14.2322 11.189 14.0216C12.247 13.8109 13.1991 13.2398 13.8831 12.4055C14.567 11.5713 14.9403 10.5256 14.9394 9.44681C14.9407 8.83669 14.8213 8.23235 14.5881 7.66855C14.3549 7.10476 14.0125 6.59264 13.5806 6.16168ZM12.4297 11.5889C12.0067 12.0123 11.4677 12.3007 10.8807 12.4177C10.2938 12.5347 9.68531 12.475 9.13232 12.2461C8.57933 12.0172 8.10665 11.6294 7.77408 11.1319C7.44152 10.6343 7.264 10.0492 7.264 9.45075C7.264 8.85226 7.44152 8.26721 7.77408 7.76963C8.10665 7.27205 8.57933 6.88428 9.13232 6.65539C9.68531 6.42651 10.2938 6.36678 10.8807 6.48377C11.4677 6.60075 12.0067 6.8892 12.4297 7.31262C12.71 7.59262 12.932 7.92539 13.0829 8.29171C13.2339 8.65803 13.3107 9.05062 13.309 9.44681C13.311 10.2491 12.9948 11.0194 12.4297 11.5889ZM16.0738 3.66851C15.9756 3.5703 15.859 3.49239 15.7307 3.43924C15.6024 3.38609 15.4648 3.35873 15.3259 3.35873C15.187 3.35873 15.0495 3.38609 14.9212 3.43924C14.7929 3.49239 14.6763 3.5703 14.5781 3.66851C14.4798 3.76672 14.4019 3.88332 14.3488 4.01164C14.2956 4.13996 14.2683 4.27749 14.2683 4.41638C14.2683 4.55528 14.2956 4.69281 14.3488 4.82113C14.4019 4.94945 14.4798 5.06604 14.5781 5.16426C14.7801 5.35549 15.0477 5.46206 15.3259 5.46206C15.6041 5.46206 15.8718 5.35549 16.0738 5.16426C16.269 4.96426 16.3783 4.69586 16.3783 4.41638C16.3783 4.1369 16.269 3.8685 16.0738 3.66851ZM16.0738 3.66851C15.9756 3.5703 15.859 3.49239 15.7307 3.43924C15.6024 3.38609 15.4648 3.35873 15.3259 3.35873C15.187 3.35873 15.0495 3.38609 14.9212 3.43924C14.7929 3.49239 14.6763 3.5703 14.5781 3.66851C14.4798 3.76672 14.4019 3.88332 14.3488 4.01164C14.2956 4.13996 14.2683 4.27749 14.2683 4.41638C14.2683 4.55528 14.2956 4.69281 14.3488 4.82113C14.4019 4.94945 14.4798 5.06604 14.5781 5.16426C14.7801 5.35549 15.0477 5.46206 15.3259 5.46206C15.6041 5.46206 15.8718 5.35549 16.0738 5.16426C16.269 4.96426 16.3783 4.69586 16.3783 4.41638C16.3783 4.1369 16.269 3.8685 16.0738 3.66851ZM13.5806 6.16168C12.8193 5.39743 11.8164 4.92098 10.743 4.81358C9.66955 4.70618 8.59213 4.97448 7.69445 5.57273C6.79676 6.17098 6.13442 7.06212 5.82039 8.09417C5.50635 9.12621 5.56007 10.2352 5.97238 11.2321C6.3847 12.229 7.13007 13.0519 8.08137 13.5606C9.03267 14.0693 10.131 14.2322 11.189 14.0216C12.247 13.8109 13.1991 13.2398 13.8831 12.4055C14.567 11.5713 14.9403 10.5256 14.9394 9.44681C14.9407 8.83669 14.8213 8.23235 14.5881 7.66855C14.3549 7.10476 14.0125 6.59264 13.5806 6.16168ZM12.4297 11.5889C12.0067 12.0123 11.4677 12.3007 10.8807 12.4177C10.2938 12.5347 9.68531 12.475 9.13232 12.2461C8.57933 12.0172 8.10665 11.6294 7.77408 11.1319C7.44152 10.6343 7.264 10.0492 7.264 9.45075C7.264 8.85226 7.44152 8.26721 7.77408 7.76963C8.10665 7.27205 8.57933 6.88428 9.13232 6.65539C9.68531 6.42651 10.2938 6.36678 10.8807 6.48377C11.4677 6.60075 12.0067 6.8892 12.4297 7.31262C12.71 7.59262 12.932 7.92539 13.0829 8.29171C13.2339 8.65803 13.3107 9.05062 13.309 9.44681C13.311 10.2491 12.9948 11.0194 12.4297 11.5889ZM13.5806 6.16168C12.8193 5.39743 11.8164 4.92098 10.743 4.81358C9.66955 4.70618 8.59213 4.97448 7.69445 5.57273C6.79676 6.17098 6.13442 7.06212 5.82039 8.09417C5.50635 9.12621 5.56007 10.2352 5.97238 11.2321C6.3847 12.229 7.13007 13.0519 8.08137 13.5606C9.03267 14.0693 10.131 14.2322 11.189 14.0216C12.247 13.8109 13.1991 13.2398 13.8831 12.4055C14.567 11.5713 14.9403 10.5256 14.9394 9.44681C14.9407 8.83669 14.8213 8.23235 14.5881 7.66855C14.3549 7.10476 14.0125 6.59264 13.5806 6.16168ZM12.4297 11.5889C12.0067 12.0123 11.4677 12.3007 10.8807 12.4177C10.2938 12.5347 9.68531 12.475 9.13232 12.2461C8.57933 12.0172 8.10665 11.6294 7.77408 11.1319C7.44152 10.6343 7.264 10.0492 7.264 9.45075C7.264 8.85226 7.44152 8.26721 7.77408 7.76963C8.10665 7.27205 8.57933 6.88428 9.13232 6.65539C9.68531 6.42651 10.2938 6.36678 10.8807 6.48377C11.4677 6.60075 12.0067 6.8892 12.4297 7.31262C12.71 7.59262 12.932 7.92539 13.0829 8.29171C13.2339 8.65803 13.3107 9.05062 13.309 9.44681C13.311 10.2491 12.9948 11.0194 12.4297 11.5889ZM16.0738 3.66851C15.9756 3.5703 15.859 3.49239 15.7307 3.43924C15.6024 3.38609 15.4648 3.35873 15.3259 3.35873C15.187 3.35873 15.0495 3.38609 14.9212 3.43924C14.7929 3.49239 14.6763 3.5703 14.5781 3.66851C14.4798 3.76672 14.4019 3.88332 14.3488 4.01164C14.2956 4.13996 14.2683 4.27749 14.2683 4.41638C14.2683 4.55528 14.2956 4.69281 14.3488 4.82113C14.4019 4.94945 14.4798 5.06604 14.5781 5.16426C14.7801 5.35549 15.0477 5.46206 15.3259 5.46206C15.6041 5.46206 15.8718 5.35549 16.0738 5.16426C16.269 4.96426 16.3783 4.69586 16.3783 4.41638C16.3783 4.1369 16.269 3.8685 16.0738 3.66851ZM16.0738 3.66851C15.9756 3.5703 15.859 3.49239 15.7307 3.43924C15.6024 3.38609 15.4648 3.35873 15.3259 3.35873C15.187 3.35873 15.0495 3.38609 14.9212 3.43924C14.7929 3.49239 14.6763 3.5703 14.5781 3.66851C14.4798 3.76672 14.4019 3.88332 14.3488 4.01164C14.2956 4.13996 14.2683 4.27749 14.2683 4.41638C14.2683 4.55528 14.2956 4.69281 14.3488 4.82113C14.4019 4.94945 14.4798 5.06604 14.5781 5.16426C14.7801 5.35549 15.0477 5.46206 15.3259 5.46206C15.6041 5.46206 15.8718 5.35549 16.0738 5.16426C16.269 4.96426 16.3783 4.69586 16.3783 4.41638C16.3783 4.1369 16.269 3.8685 16.0738 3.66851ZM13.5806 6.16168C12.8193 5.39743 11.8164 4.92098 10.743 4.81358C9.66955 4.70618 8.59213 4.97448 7.69445 5.57273C6.79676 6.17098 6.13442 7.06212 5.82039 8.09417C5.50635 9.12621 5.56007 10.2352 5.97238 11.2321C6.3847 12.229 7.13007 13.0519 8.08137 13.5606C9.03267 14.0693 10.131 14.2322 11.189 14.0216C12.247 13.8109 13.1991 13.2398 13.8831 12.4055C14.567 11.5713 14.9403 10.5256 14.9394 9.44681C14.9407 8.83669 14.8213 8.23235 14.5881 7.66855C14.3549 7.10476 14.0125 6.59264 13.5806 6.16168ZM12.4297 11.5889C12.0067 12.0123 11.4677 12.3007 10.8807 12.4177C10.2938 12.5347 9.68531 12.475 9.13232 12.2461C8.57933 12.0172 8.10665 11.6294 7.77408 11.1319C7.44152 10.6343 7.264 10.0492 7.264 9.45075C7.264 8.85226 7.44152 8.26721 7.77408 7.76963C8.10665 7.27205 8.57933 6.88428 9.13232 6.65539C9.68531 6.42651 10.2938 6.36678 10.8807 6.48377C11.4677 6.60075 12.0067 6.8892 12.4297 7.31262C12.71 7.59262 12.932 7.92539 13.0829 8.29171C13.2339 8.65803 13.3107 9.05062 13.309 9.44681C13.311 10.2491 12.9948 11.0194 12.4297 11.5889Z" fill="#A1A1AA"/>
</svg>
