<svg width="20" height="19" viewBox="0 0 20 19" fill="none" xmlns="http://www.w3.org/2000/svg">
<path fill-rule="evenodd" clip-rule="evenodd" d="M1.22333 0.488954C1.5364 0.175882 1.96102 0 2.40377 0H17.9586C18.4013 0 18.826 0.175882 19.139 0.488954C19.4521 0.802028 19.628 1.22664 19.628 1.66939V17.2242C19.628 17.667 19.4521 18.0916 19.139 18.4047C18.826 18.7177 18.4013 18.8936 17.9586 18.8936H2.40377C1.96102 18.8936 1.5364 18.7177 1.22333 18.4047C0.910257 18.0916 0.734375 17.667 0.734375 17.2242V1.66939C0.734375 1.22664 0.910257 0.802026 1.22333 0.488954ZM2.25101 1.51663C2.29152 1.47612 2.34647 1.45336 2.40377 1.45336H17.9586C18.0159 1.45336 18.0708 1.47612 18.1114 1.51663C18.1519 1.55715 18.1746 1.6121 18.1746 1.66939V17.2242C18.1746 17.2815 18.1519 17.3365 18.1114 17.377C18.0708 17.4175 18.0159 17.4403 17.9586 17.4403H2.40377C2.34647 17.4403 2.29152 17.4175 2.25101 17.377C2.21049 17.3365 2.18773 17.2815 2.18773 17.2242V1.66939C2.18773 1.6121 2.21049 1.55715 2.25101 1.51663ZM6.24092 3.3985C5.64435 3.3985 5.16073 3.88212 5.16073 4.4787C5.16073 5.07528 5.64435 5.5589 6.24092 5.5589C6.8375 5.5589 7.32112 5.07528 7.32112 4.4787C7.32112 3.88213 6.8375 3.3985 6.24092 3.3985ZM9.66434 6.5845C9.56068 6.30973 9.29528 6.1143 8.98423 6.1143C8.58289 6.1143 8.25755 6.43964 8.25755 6.84097V13.9019C8.25755 14.3033 8.58289 14.6286 8.98423 14.6286C9.38556 14.6286 9.71091 14.3033 9.71091 13.9019V9.37268C9.71202 8.83745 9.92536 8.3245 10.3042 7.94635C10.683 7.56814 11.1964 7.35567 11.7318 7.35554C12.2664 7.35666 12.7788 7.56952 13.1568 7.94757C13.5349 8.32563 13.7478 8.83805 13.7489 9.37268V13.9019C13.7489 14.3033 14.0742 14.6286 14.4756 14.6286C14.8769 14.6286 15.2022 14.3033 15.2022 13.9019L15.2022 9.37092C15.2007 8.45144 14.8347 7.57007 14.1845 6.91989C13.5343 6.26972 12.653 5.90376 11.7335 5.90218C10.9924 5.90218 10.26 6.14339 9.66434 6.5845ZM6.9676 6.84097C6.9676 6.43964 6.64226 6.1143 6.24092 6.1143C5.83959 6.1143 5.51424 6.43964 5.51424 6.84097V13.9019C5.51424 14.3033 5.83959 14.6286 6.24092 14.6286C6.64226 14.6286 6.9676 14.3033 6.9676 13.9019V6.84097ZM6.61408 4.4787C6.61408 4.68479 6.44701 4.85186 6.24092 4.85186C6.03483 4.85186 5.86776 4.68479 5.86776 4.4787C5.86776 4.27261 6.03483 4.10554 6.24092 4.10554C6.44701 4.10554 6.61408 4.27261 6.61408 4.4787Z" fill="#A1A1AA"/>
</svg>
