<svg width="20" height="19" viewBox="0 0 20 19" fill="none" xmlns="http://www.w3.org/2000/svg">
<path d="M17.0856 2.74423C15.7707 1.43468 14.0983 0.542917 12.2785 0.180904C10.4586 -0.181108 8.57244 0.00277114 6.85672 0.709454C5.141 1.41614 3.67225 2.61412 2.63489 4.15298C1.59753 5.69183 1.0378 7.50297 1.02599 9.35896C1.02615 11.0011 1.45839 12.6144 2.27927 14.0365L0.947266 18.8936L5.93203 17.5896C7.36215 18.3673 8.96946 18.7608 10.597 18.7315C12.2246 18.7023 13.8167 18.2514 15.218 17.4228C16.6193 16.5942 17.7818 15.4163 18.5921 14.0041C19.4023 12.5918 19.8326 10.9935 19.8409 9.36526C19.8435 8.134 19.6013 6.91453 19.1283 5.77782C18.6552 4.64112 17.9609 3.60991 17.0856 2.74423ZM10.4319 17.1454C9.02972 17.1449 7.65317 16.7697 6.44452 16.0587L6.15954 15.8886L3.19718 16.6635L3.98441 13.7908L3.79469 13.4979C2.78436 11.87 2.40767 9.92732 2.73632 8.03964C3.06496 6.15196 4.076 4.45104 5.577 3.26062C7.078 2.0702 8.96416 1.47339 10.8765 1.58378C12.7889 1.69417 14.5939 2.50405 15.948 3.85928C17.0403 4.94736 17.7845 6.3357 18.0861 7.84786C18.3877 9.36002 18.233 10.9277 17.6418 12.3518C17.0505 13.7758 16.0494 14.9919 14.7656 15.8454C13.4818 16.699 11.9734 17.1515 10.4319 17.1454ZM14.7239 11.3245C14.4877 11.2111 13.3289 10.6441 13.1195 10.5591C12.9101 10.474 12.7495 10.4457 12.5881 10.6725C12.4267 10.8992 11.9804 11.4379 11.8473 11.5891C11.7143 11.7403 11.5718 11.7686 11.3348 11.6458C10.6416 11.3726 10.002 10.9791 9.44546 10.4835C8.93155 10.0086 8.48994 9.46102 8.13471 8.85813C8.00167 8.62189 8.11582 8.49904 8.23863 8.3762C8.34333 8.27225 8.4748 8.10216 8.59052 7.96987C8.6868 7.85228 8.76628 7.72189 8.82669 7.58243C8.85718 7.51837 8.87141 7.44777 8.86811 7.3769C8.86481 7.30602 8.8441 7.23705 8.8078 7.1761C8.75112 7.0627 8.27641 5.90985 8.0859 5.43737C7.89618 4.98379 7.69701 5.04364 7.55452 5.03104H7.0995C6.97987 5.03302 6.86199 5.06012 6.7535 5.11058C6.645 5.16105 6.54832 5.23375 6.46971 5.32397C6.20748 5.57694 5.99999 5.88109 5.86011 6.21756C5.72022 6.55404 5.65092 6.91567 5.6565 7.28004C5.73323 8.16274 6.06654 9.00367 6.61535 9.69914C7.62298 11.207 9.00699 12.4253 10.6302 13.2333C11.0658 13.4246 11.5127 13.5887 11.9685 13.7247C12.4484 13.8693 12.955 13.9017 13.4493 13.8192C13.7775 13.7549 14.0885 13.6224 14.3623 13.4303C14.6361 13.2383 14.8666 12.9909 15.0388 12.7041C15.1988 12.3556 15.2454 11.9655 15.1718 11.5891C15.1033 11.4851 14.96 11.4379 14.7239 11.3245Z" fill="#A1A1AA"/>
</svg>
